<svg t="1593166065504" class="icon" viewBox="0 0 1024 1024" version="1.1" xmlns="http://www.w3.org/2000/svg" p-id="1548" width="256" height="256"><path d="M511.3 911.2c220.2 0 399.4-179.2 399.4-399.4S731.6 112.4 511.3 112.4 111.9 291.6 111.9 511.8s179.2 399.4 399.4 399.4z m0-751.3c109.9 0 208.1 50.6 272.6 129.8-58.5 51.1-129.1 84.2-205.3 96.6-16.2-19.3-40.2-31.8-67.4-31.8-26.7 0-50.4 12.1-66.6 30.9-75.1-13.5-145-47.3-202.3-98.4l-10.7 12c64.5-84.4 165.7-139.1 279.7-139.1zM213.7 324.8c60.3 52.8 132.7 88.7 210.6 104.8-0.6 4.3-1.3 8.6-1.3 13.1 0 44.8 33.4 81.3 76.6 87.1v-56.1c-13-4.8-22.3-17-22.3-31.6 0-18.7 15.2-33.9 33.9-33.9s33.9 15.2 33.9 33.9c0 14.6-9.3 26.8-22.3 31.6v56.1c43.2-5.7 76.6-42.3 76.6-87.1 0-4-0.7-7.8-1.2-11.6 78.7-15 151.5-50.1 212.8-102.5 32.8 53.4 52 116 52 183.2 0 194.1-157.9 351.9-351.9 351.9S159.4 705.9 159.4 511.8c0-68.8 20.1-132.8 54.3-187z" fill="#1890FF" p-id="1549"></path><path d="M515.3 805.8c117.7 0 213.5-95.8 213.5-213.5v-23.7H301.7v23.7c0 117.7 95.8 213.5 213.6 213.5zM679.7 616c-11.6 80.4-80.9 142.4-164.4 142.4s-152.8-62-164.4-142.4h328.8z" fill="#1890FF" p-id="1550"></path></svg>